<svg width="154" height="169" viewBox="0 0 154 169" fill="none" xmlns="http://www.w3.org/2000/svg">
<path d="M75.3025 119.954C73.3347 119.411 71.8047 117.858 71.2875 115.88L70.3396 112.256C69.4127 108.711 72.6662 105.492 76.1926 106.465L143.011 124.893C147.071 126.012 147.774 131.48 144.13 133.595L139.939 136.026C138.611 136.796 137.03 137 135.551 136.591L75.3025 119.954Z" fill="#212222"/>
<path d="M81.556 143.913C79.579 143.372 78.0414 141.813 77.5252 139.826L76.5682 136.143C75.6479 132.602 78.8978 129.389 82.4205 130.359L117.055 139.891C121.121 141.01 121.821 146.488 118.169 148.598L113.975 151.02C112.653 151.784 111.081 151.987 109.609 151.585L81.556 143.913Z" fill="#212222"/>
<path d="M88.2533 167.429C85.2238 169.194 81.3491 167.578 80.4655 164.18C79.4386 160.231 83.0608 156.647 86.9899 157.725C91.5193 158.969 92.313 165.064 88.2533 167.429Z" fill="#212222"/>
<path d="M44.747 100.075C44.2331 98.096 44.81 95.9924 46.2616 94.5546L48.9205 91.9203C51.521 89.344 55.9306 90.5572 56.8529 94.1029L74.3317 161.285C75.394 165.368 71.0185 168.712 67.3688 166.607L63.1717 164.187C61.8421 163.42 60.8752 162.15 60.4888 160.662L44.747 100.075Z" fill="#212222"/>
<path d="M27.1687 117.487C26.6475 115.501 27.2264 113.388 28.6859 111.947L31.391 109.275C33.9925 106.705 38.3949 107.919 39.3178 111.46L48.3939 146.274C49.4595 150.361 45.0748 153.708 41.4244 151.594L37.2332 149.167C35.9118 148.402 34.9505 147.14 34.5625 145.661L27.1687 117.487Z" fill="#212222"/>
<path d="M14.1398 135.842C11.0992 134.096 10.559 129.926 13.0545 127.461C15.9552 124.596 20.8643 125.946 21.8967 129.894C23.087 134.445 18.2139 138.182 14.1398 135.842Z" fill="#212222"/>
<path d="M46.74 63.6347C48.1939 62.1991 50.3008 61.6478 52.2696 62.1883L55.8761 63.1781C59.4038 64.146 60.5599 68.5782 57.9557 71.1515L8.61521 119.908C5.61719 122.871 0.538501 120.747 0.533254 116.528L0.527348 111.677C0.525381 110.14 1.13968 108.666 2.23249 107.587L46.74 63.6347Z" fill="#212222"/>
<path d="M22.8834 57.0901C24.3393 55.645 26.4554 55.0904 28.4314 55.6358L32.0936 56.647C35.6157 57.6194 36.7676 62.0454 34.168 64.6168L8.61094 89.898C5.61063 92.8659 0.525049 90.735 0.527345 86.511L0.529966 81.6613C0.530622 80.1323 1.14098 78.6672 2.22527 77.5914L22.8834 57.0901Z" fill="#212222"/>
<path d="M0.500028 54.9702C0.488877 51.4592 3.82373 48.9059 7.20252 49.838C11.13 50.9216 12.4167 55.8564 9.52032 58.7261C6.18088 62.0341 0.514787 59.6746 0.500028 54.9702Z" fill="#212222"/>
<path d="M79.3459 47.1167C81.3137 47.6598 82.8437 49.2124 83.3609 51.1904L84.3088 54.8146C85.2356 58.359 81.9821 61.5781 78.4557 60.6056L11.6375 42.1777C7.57713 41.058 6.87395 35.59 10.5184 33.4762L14.7093 31.0449C16.0372 30.2748 17.6184 30.0712 19.0976 30.4795L79.3459 47.1167Z" fill="#212222"/>
<path d="M73.0838 23.1557C75.0608 23.6965 76.5984 25.255 77.1146 27.2419L78.0716 30.9251C78.9919 34.4669 75.742 37.6794 72.2192 36.7096L37.5851 27.1773C33.5192 26.0579 32.8183 20.5807 36.471 18.4706L40.6648 16.0478C41.9868 15.2843 43.5585 15.0809 45.0308 15.4837L73.0838 23.1557Z" fill="#212222"/>
<path d="M63.7133 2.67166C66.7428 0.906599 70.6175 2.52312 71.501 5.92061C72.5279 9.87009 68.9058 13.4535 64.9766 12.3755C60.4473 11.1325 59.6536 5.03669 63.7133 2.67166Z" fill="#212222"/>
<path d="M109.825 67.1806C110.339 69.1596 109.762 71.2632 108.31 72.7011L105.651 75.335C103.051 77.9116 98.6411 76.6984 97.7185 73.1527L80.2401 5.97033C79.1777 1.88803 83.5532 -1.456 87.203 0.648938L91.4 3.06943C92.7297 3.83636 93.6965 5.10622 94.0829 6.59384L109.825 67.1839V67.1806Z" fill="#212222"/>
<path d="M127.419 49.7525C127.94 51.7384 127.361 53.8516 125.902 55.293L123.197 57.965C120.595 60.5344 116.193 59.3205 115.27 55.7797L106.194 20.9652C105.128 16.8783 109.513 13.5313 113.163 15.6454L117.354 18.0725C118.676 18.8376 119.637 20.0997 120.025 21.5782L127.419 49.7525Z" fill="#212222"/>
<path d="M140.439 31.4064C143.48 33.1522 144.02 37.3221 141.525 39.7875C138.624 42.653 133.715 41.3021 132.682 37.3543C131.492 32.8033 136.365 29.067 140.439 31.4064Z" fill="#212222"/>
<path d="M107.703 103.571C106.249 105.007 104.142 105.558 102.173 105.018L98.5664 104.028C95.039 103.06 93.8829 98.6277 96.4867 96.0544L145.827 47.2977C148.825 44.3348 153.904 46.4591 153.909 50.6778L153.915 55.5292C153.917 57.0664 153.303 58.54 152.21 59.6194L107.703 103.571Z" fill="#212222"/>
<path d="M131.563 110.111C130.107 111.556 127.991 112.111 126.015 111.565L122.352 110.554C118.83 109.582 117.679 105.156 120.278 102.584L145.835 77.3032C148.836 74.3354 153.921 76.4662 153.919 80.6902L153.916 85.54C153.916 87.0686 153.305 88.534 152.221 89.6098L131.563 110.111Z" fill="#212222"/>
<path d="M153.935 112.241C153.946 115.752 150.612 118.305 147.233 117.373C143.305 116.289 142.019 111.355 144.915 108.485C148.254 105.177 153.921 107.536 153.935 112.241Z" fill="#212222"/>
</svg>
